<svg width="53" height="53" viewBox="0 0 53 53" fill="none" xmlns="http://www.w3.org/2000/svg">
<circle cx="26.5" cy="26.5" r="26.5" fill="#FCE6EC"/>
<path d="M25.5692 15.6245C25.77 15.4238 26.0423 15.311 26.3262 15.311C26.6101 15.311 26.8824 15.4238 27.0832 15.6245L33.5075 22.0488C33.7026 22.2508 33.8105 22.5212 33.8081 22.802C33.8056 23.0827 33.693 23.3513 33.4945 23.5498C33.296 23.7483 33.0274 23.8609 32.7467 23.8633C32.4659 23.8658 32.1955 23.7579 31.9935 23.5628L27.3969 18.9662V37.7959C27.3969 38.0798 27.2841 38.3522 27.0833 38.553C26.8825 38.7538 26.6102 38.8666 26.3262 38.8666C26.0423 38.8666 25.7699 38.7538 25.5691 38.553C25.3683 38.3522 25.2555 38.0798 25.2555 37.7959V18.9662L20.6589 23.5628C20.457 23.7579 20.1865 23.8658 19.9058 23.8633C19.625 23.8609 19.3565 23.7483 19.158 23.5498C18.9594 23.3513 18.8468 23.0827 18.8444 22.802C18.842 22.5212 18.9499 22.2508 19.1449 22.0488L25.5692 15.6245Z" fill="#B60336"/>
</svg>
